<svg width="96" height="96" viewBox="0 0 96 96" fill="none" xmlns="http://www.w3.org/2000/svg">
<rect width="96" height="96" rx="48" fill="#454545"/>
<path fill-rule="evenodd" clip-rule="evenodd" d="M71 48C71 60.7025 60.7025 71 48 71C35.2975 71 25 60.7025 25 48C25 35.2975 35.2975 25 48 25C60.7025 25 71 35.2975 71 48ZM45.0047 38.1663C44.9092 36.4468 46.2778 35 48 35C49.7222 35 51.0908 36.4468 50.9953 38.1663L50.2314 50.8891C50.1656 52.0734 49.1861 53 48 53C46.8139 53 45.8344 52.0734 45.7686 50.8891L45.0047 38.1663ZM51 58C51 59.6569 49.6569 61 48 61C46.3431 61 45 59.6569 45 58C45 56.3431 46.3431 55 48 55C49.6569 55 51 56.3431 51 58Z" fill="#999999"/>
</svg>
