<svg width="24" height="24" viewBox="0 0 24 24" fill="none" xmlns="http://www.w3.org/2000/svg">
<path d="M11.8647 2.51136L2.99256 7.7432C2.96207 7.76118 2.94336 7.79394 2.94336 7.82934V21.4183C2.94336 21.4736 2.98813 21.5183 3.04336 21.5183H9.36612C9.42135 21.5183 9.46612 21.4736 9.46612 21.4183V14.6241C9.46612 14.5689 9.51089 14.5241 9.56612 14.5241H14.4416C14.4968 14.5241 14.5416 14.5689 14.5416 14.6241V21.4183C14.5416 21.4736 14.5864 21.5183 14.6416 21.5183H20.957C21.0122 21.5183 21.057 21.4736 21.057 21.4183V7.82988C21.057 7.79419 21.038 7.76121 21.0071 7.74333L11.9656 2.51095C11.9344 2.49287 11.8958 2.49303 11.8647 2.51136Z" stroke="white" stroke-width="2"/>
</svg>
