<svg width="22" height="22" viewBox="0 0 22 22" fill="none" xmlns="http://www.w3.org/2000/svg">
<path d="M10.8647 1.51136L1.99256 6.7432C1.96207 6.76118 1.94336 6.79394 1.94336 6.82934V20.4183C1.94336 20.4736 1.98813 20.5183 2.04336 20.5183H8.36612C8.42135 20.5183 8.46612 20.4736 8.46612 20.4183V13.6241C8.46612 13.5689 8.51089 13.5241 8.56612 13.5241H13.4416C13.4968 13.5241 13.5416 13.5689 13.5416 13.6241V20.4183C13.5416 20.4736 13.5864 20.5183 13.6416 20.5183H19.957C20.0122 20.5183 20.057 20.4736 20.057 20.4183V6.82988C20.057 6.79419 20.038 6.76121 20.0071 6.74333L10.9656 1.51095C10.9344 1.49287 10.8958 1.49303 10.8647 1.51136Z" fill="white" stroke="white" stroke-width="2"/>
</svg>
