<svg width="24" height="24" viewBox="0 0 24 24" fill="none" xmlns="http://www.w3.org/2000/svg">
<path fill-rule="evenodd" clip-rule="evenodd" d="M19.9395 10.5745C19.9395 12.7688 19.1956 14.7888 17.9463 16.3972L22.7676 21.2185C23.1582 21.6091 23.1582 22.2424 22.7676 22.6326C22.3772 23.0232 21.7439 23.0232 21.3535 22.6326L16.5605 17.8401C14.9072 19.2346 12.7715 20.0745 10.4395 20.0745C5.19263 20.0745 0.939453 15.821 0.939453 10.5745C0.939453 5.32788 5.19263 1.07446 10.4395 1.07446C15.6863 1.07446 19.9395 5.32788 19.9395 10.5745ZM2.83936 10.5745C2.83936 14.7717 6.24219 18.1746 10.4395 18.1746C14.6367 18.1746 18.0396 14.7717 18.0396 10.5745C18.0396 6.3772 14.6367 2.97437 10.4395 2.97437C6.24219 2.97437 2.83936 6.3772 2.83936 10.5745ZM10.481 15.5048C13.2424 15.5048 15.481 13.2663 15.481 10.5048C15.481 7.74341 13.2424 5.50484 10.481 5.50484C7.71953 5.50484 5.48096 7.74341 5.48096 10.5048C5.48096 13.2663 7.71953 15.5048 10.481 15.5048Z" fill="white"/>
</svg>
