<svg width="26" height="26" viewBox="0 0 26 26" fill="none" xmlns="http://www.w3.org/2000/svg">
<path fill-rule="evenodd" clip-rule="evenodd" d="M19.4514 17.8297C20.8067 16.0631 21.6138 13.8444 21.6138 11.4343C21.6138 5.67172 16.9994 1 11.3069 1C5.61443 1 1 5.67172 1 11.4343C1 17.1968 5.61443 21.8685 11.3069 21.8685C13.837 21.8685 16.1542 20.9461 17.9479 19.4144L23.148 24.6782C23.5715 25.1073 24.2586 25.1073 24.6821 24.6782C25.106 24.2497 25.106 23.5541 24.6821 23.1251L19.4514 17.8297ZM11.3069 19.7818C6.75313 19.7818 3.06127 16.0443 3.06127 11.4343C3.06127 6.82423 6.75313 3.08675 11.3069 3.08675C15.8607 3.08675 19.5525 6.82423 19.5525 11.4343C19.5525 16.0443 15.8607 19.7818 11.3069 19.7818Z" fill="white" stroke="white" stroke-width="0.5"/>
</svg>
