<svg width="25" height="25" viewBox="0 0 25 25" fill="none" xmlns="http://www.w3.org/2000/svg">
<path d="M1.25108 0C0.560199 0 0 0.549116 0 1.22729V23.7309C0 24.4091 0.560199 24.9582 1.25108 24.9582C1.94196 24.9582 2.50216 24.4091 2.50216 23.7309V1.22729C2.50216 0.549116 1.94196 0 1.25108 0Z" fill="white"/>
<path d="M7.54091 1.22729C7.54091 0.549116 8.10111 0 8.79199 0C9.48287 0 10.0431 0.549116 10.0431 1.22729V23.7309C10.0431 24.4091 9.48287 24.9582 8.79199 24.9582C8.10111 24.9582 7.54091 24.4091 7.54091 23.7309V1.22729Z" fill="white"/>
<path fill-rule="evenodd" clip-rule="evenodd" d="M15.0297 1.49677C15.0297 0.445746 16.2028 -0.19957 17.1176 0.348351L24.3426 4.67495C24.544 4.79565 24.7063 4.96236 24.8197 5.15655C24.936 5.35672 25 5.58616 25 5.82397V23.6538C25 24.3971 24.3853 25 23.6274 25H16.4024C15.6442 25 15.0297 24.3971 15.0297 23.6538V1.49677Z" fill="white"/>
</svg>
